Coordinates
version=1
nRows=13
nColumns=34
inDegrees=yes

Units are S.I. units (second, meters, Newtons, ...)
If the header above contains a line with 'inDegrees', this indicates whether rotational values are in degrees (yes) or radians (no).

endheader
time	pelvis_tilt	pelvis_list	pelvis_rotation	pelvis_tx	pelvis_ty	pelvis_tz	hip_flexion_r	hip_adduction_r	hip_rotation_r	knee_angle_r	ankle_angle_r	subtalar_angle_r	mtp_angle_r	hip_flexion_l	hip_adduction_l	hip_rotation_l	knee_angle_l	ankle_angle_l	subtalar_angle_l	mtp_angle_l	lumbar_extension	lumbar_bending	lumbar_rotation	arm_flex_r	arm_add_r	arm_rot_r	elbow_flex_r	pro_sup_r	arm_flex_l	arm_add_l	arm_rot_l	elbow_flex_l	pro_sup_l
      0.00000000	     12.13695206	     -6.22775031	     -6.36244779	    -10.70914481	      0.96179231	      0.58546191	    -19.14417629	      8.42966737	    -11.65291397	     11.69146233	     -2.77107220	    -29.62928728	      0.00000000	     10.63470686	     -6.63170440	      4.48105961	     26.58296147	     -0.68375155	    -19.41333623	      0.00000000	     -5.20371736	     15.20025642	      8.91607528	   -220.98481816	     -2.02103984	     58.02447771	     29.42692363	     97.34530744	   -255.84604111	    -34.07416636	     27.73848855	     57.94158552	    111.87468720
      0.01666670	     15.81575705	     -3.80664383	     -5.84917426	    -10.71583002	      0.97224795	      0.58602633	    -21.54316069	      6.26064991	    -14.10063552	     11.67392617	     -2.86531972	    -29.01061638	      0.00000000	      6.85124295	     -2.18200698	      4.74429480	     28.21917409	     -1.77326282	    -21.49409918	      0.00000000	    -11.87048730	     14.20255897	      9.19040459	   -219.05379885	      3.67758581	     51.36957912	     32.99997034	     98.10718014	   -259.83950333	    -37.95341393	     22.14755897	     64.96216873	    112.32839666
      0.03333330	     14.41387101	     -1.73570938	     -4.86985037	    -10.71554168	      0.97289097	      0.58858016	    -20.34717039	      5.09149488	    -15.94586500	     10.43692983	     -1.43642723	    -27.18455805	      0.00000000	      8.25113075	      0.27753933	      5.20366839	     27.98185852	     -2.39525374	    -21.62878237	      0.00000000	     -6.13610064	      8.52220254	      5.46204772	   -238.73839421	     -2.35960548	     20.26283419	     59.60703906	    119.74817918	   -262.43595807	    -30.15882621	     16.37818810	     64.89061607	    119.74817918
      0.05000000	     14.63178288	     -1.39960822	     -4.22121493	    -10.71768233	      0.97394419	      0.58847526	    -20.69654492	      4.89481658	    -16.57592599	     10.14700517	      0.06838468	    -24.29375046	      0.00000000	      7.87174010	      0.96344029	      6.23088765	     27.95926336	     -4.86025861	    -23.77162657	      0.00000000	     -5.70238814	      7.70191105	      4.91288754	   -241.82404990	     -3.92892372	     20.40781608	     64.92390340	    119.74817918	   -265.38826703	    -26.84110735	     10.04938846	     67.05226773	    119.74817918
      0.06666670	     15.18241821	     -1.12363881	     -3.46472270	    -10.71755498	      0.97272157	      0.58865892	    -21.45289250	      4.95895434	    -16.59604463	      9.84997051	      0.84277608	    -23.24247339	      0.00000000	      7.31818658	      1.50260162	      7.25515306	     28.08592561	     -7.06714145	    -25.68602045	      0.00000000	     -5.68300033	      6.64310840	      4.56322163	   -243.65224042	     -5.36519744	     19.73644555	     67.45553333	    119.74817918	   -264.69362468	    -23.20991368	      7.50662390	     64.04493844	    119.74817918
      0.08333330	     15.42647648	     -1.15163628	     -3.08510443	    -10.71540569	      0.97271248	      0.58839198	    -21.70851510	      5.15517579	    -15.63853492	      9.89526410	      1.15926039	    -23.02516400	      0.00000000	      7.38471899	      1.61468913	      7.74871576	     28.54918461	     -7.45148114	    -25.44714422	      0.00000000	     -5.73328549	      6.74932483	      4.36116412	   -244.12858305	     -5.40201617	     19.86173879	     67.70251712	    119.74817918	   -264.74200879	    -23.04139695	      7.53700368	     63.59840803	    119.74817918
      0.10000000	     15.51120893	     -1.08534556	     -2.67164651	    -10.71354805	      0.97376166	      0.58795373	    -21.95211808	      5.36132732	    -15.26280681	      9.55385024	      1.98755502	    -22.25632101	      0.00000000	      7.57628858	      1.89966240	      8.86834115	     28.86471718	     -9.07573576	    -27.41362152	      0.00000000	     -4.98688822	      5.25149565	      5.01569808	   -246.62687575	     -9.03225929	     18.54465932	     70.96657872	    119.74817918	   -262.66394471	    -18.71674384	      8.34435661	     57.90099604	    119.74817918
      0.11666670	     15.55966109	     -0.98908308	     -2.62251197	    -10.71334244	      0.97562175	      0.58739780	    -22.36376877	      5.47663259	    -14.47625995	      8.66491245	      1.93383325	    -21.83568873	      0.00000000	      7.52940475	      2.02619976	      9.05819584	     28.64813626	     -9.73924249	    -27.08908002	      0.00000000	     -4.80539674	      5.21669427	      5.18989098	   -247.46839654	     -9.07786634	     18.59317619	     71.18445534	    119.74817918	   -262.95780145	    -18.57675999	      8.31205343	     57.84528258	    119.74817918
      0.13333330	     15.44660862	     -0.84516297	     -2.53043117	    -10.71387483	      0.97747259	      0.58682095	    -22.50885022	      5.50833443	    -14.01123311	      8.00336404	      1.91199775	    -21.29864014	      0.00000000	      7.65040133	      2.27856433	      9.64535387	     28.32156973	    -11.52720007	    -28.26455631	      0.00000000	     -4.64829281	      4.61221954	      5.32285559	   -249.05308206	     -9.66383134	     16.73752094	     73.38096619	    119.74817918	   -263.03169729	    -17.47948083	      7.46012097	     58.55921181	    119.74817918
      0.15000000	     15.29826302	     -0.86121437	     -2.40217354	    -10.71459964	      0.97782010	      0.58644716	    -22.60773913	      5.68994457	    -13.74501078	      7.44645268	      1.61208196	    -21.09080109	      0.00000000	      8.05373649	      2.29985799	      9.92111159	     28.39903895	    -12.83466129	    -28.82752474	      0.00000000	     -4.72973674	      4.48807675	      5.49742939	   -249.66232938	     -9.79908526	     15.50295868	     75.18198122	    119.74817918	   -263.02647659	    -16.63313997	      6.37814440	     59.01129408	    119.74817918
      0.16666670	     15.25752020	     -0.93745483	     -2.37359289	    -10.71547933	      0.97785936	      0.58647333	    -22.74809492	      5.83186904	    -13.58594952	      7.11572278	      1.33884247	    -20.87638641	      0.00000000	      8.41776282	      2.16274427	      9.68141911	     28.63078313	    -13.58285338	    -28.63687609	      0.00000000	     -4.88068747	      4.53941846	      5.40235110	   -249.70031593	     -9.68511428	     15.38113171	     75.53052225	    119.74817918	   -262.93582092	    -16.52673548	      6.22532366	     59.12103211	    119.74817918
      0.18333330	     15.23013978	     -1.03992924	     -2.40615200	    -10.71618657	      0.97651137	      0.58644686	    -22.73641592	      5.90334638	    -13.51020623	      7.13432516	      0.81351278	    -20.97702575	      0.00000000	      8.73776638	      2.11384571	      9.81269245	     28.96507118	    -14.59732667	    -29.59145267	      0.00000000	     -5.20648620	      4.67678453	      5.40876287	   -249.64082454	     -9.34135192	     14.45723087	     77.11283796	    119.74817918	   -262.90346611	    -16.40466628	      5.37817224	     59.59116774	    119.74817918
      0.20000000	     15.25202691	     -1.01469425	     -2.46996307	    -10.71613009	      0.97643783	      0.58634944	    -22.75549978	      5.80955689	    -13.33525068	      7.24880290	      0.71171225	    -20.89397063	      0.00000000	      8.87689870	      2.14094410	      9.60816108	     29.24091935	    -14.90822735	    -29.57278479	      0.00000000	     -5.20563190	      4.54013550	      5.17688673	   -249.55533815	     -9.23743617	     14.41692827	     77.18662271	    119.74817918	   -262.89459216	    -16.30684390	      5.33162116	     59.58301261	    119.74817918
